<svg xmlns="http://www.w3.org/2000/svg" viewBox="0 0 139 75"><path fill="#000" fill-rule="evenodd" d="M24.726 26.571a.68.68 0 01.08-.601C35.662 9.709 53.836 0 73.423 0c11.848 0 23.253 3.516 32.98 10.168 9.503 6.497 16.808 15.54 21.128 26.149a.635.635 0 01-.586.87h-1.816c-.32 0-.61-.19-.734-.486-4.19-9.866-11.122-18.262-20.048-24.28-9.148-6.169-19.841-9.43-30.924-9.43-9.175 0-18.263 2.292-26.284 6.625a55.79 55.79 0 00-19.487 17.568.846.846 0 01-.975.33l-1.52-.511a.697.697 0 01-.43-.432zM63.403 50.77l.07.01.098.013c1.244.169 2.467.392 3.404.81.867.382 1.376.866 1.84 1.728.706 1.307.752 3.139.114 4.525-.476 1.031-1.523 1.896-2.478 2.355-.992.48-1.97.708-3.09.836-1.961.215-4.078-.19-5.843-1.041-1.043-.509-2.318-1.385-2.96-2.513-.474-.826-.459-1.901.117-2.687.917-1.252 2.88-1.527 4.36-1.475 1.127.043 3.157.391 4.228.771.297.107 1.391.532 1.582.728.135.135.222.332.161.515-.244.746-2.062 1.14-2.587 1.219-1.111.17-1.8-.127-2.829-.569-.273-.117-.57-.245-.904-.377-.397-.155-.925-.327-1.33-.364-.725-.069-1.601.134-1.74.924-.068.407.41.788.775.948a5.86 5.86 0 002.398.51c2.492.042 5.293-.368 7.331-1.808.28-.2.553-.49.556-.857.009-.74-1.292-1.192-1.292-1.192-1.373-.572-3.91-.85-5.217-.957l-.789-.067c-1.295-.11-2.832-.242-3.259-.304-.533-.077-1.113-.184-1.575-.39-.464-.21-.918-.678-1.053-1.196-.239-.933.066-2.079.586-2.824 1.362-1.954 4.552-2.696 6.936-2.99 2.307-.287 6.036-.284 8.302.917.35.188.529.361.456.735-.148.7-.676 1.151-1.315 1.35-.656.207-1.995.291-2.625.33l-.044.004c-.648.036-1.327.059-2.022.083-2.236.076-4.628.157-6.613.697l-.032.01c-.207.058-.53.15-.638.27-.36.39.504.534.883.597l.122.02c.074.018.088.021.166.03l5.75.676zM47.152 38.617s.444-.665.817-1.17c.677-.918 1.904-2.192 2.828-2.98.283-.241.616-.514.616-.514s-.521.054-.817.114c-.7.136-1.728.818-2.242 1.258-.848.724-1.78 1.9-1.358 2.945.061.148.156.347.156.347zm4.71 1.258a8.963 8.963 0 003.761-1.123c1.145-.64 2.83-1.886 2.655-3.35a1.234 1.234 0 00-.757-1c-.511-.221-.777-.185-1.43.008a4.293 4.293 0 00-1.135.478c-1.313.76-3.175 2.39-4.186 3.69-.109.143-.217.293-.322.436-.12.166-.234.323-.333.449-.116.145-.207.278-.196.313.04.147 1.421.134 1.944.099zm-3.408 2.497c-.088.093-.18.27-.274.453-.053.102-.107.207-.161.299a1.5 1.5 0 01-.33.381c-.349.256-.644.268-.98-.027-.472-.417-.745-1.06-.764-1.687-.004-.1 0-.205.004-.308a2.031 2.031 0 00-.02-.498c-.055-.253-.24-.51-.42-.762-.096-.136-.192-.27-.266-.4-.247-.437-.446-1.2-.471-1.694-.085-1.538.727-2.954 1.783-4.072 1.063-1.13 2.453-2.068 3.966-2.707 1.43-.601 3.524-1.01 5.094-.468.511.174 1.223.608 1.581 1.063.02.025.04.05.058.075.052.07.1.135.158.171.052.033.168.052.283.07l.115.019c.5.086 1.221.465 1.516.716.591.51.916.996 1.065 1.702.301 1.422-.52 2.98-1.454 3.93-1.6 1.633-3.18 2.781-5.227 3.58-.899.351-2.299.679-3.319.587a5.637 5.637 0 01-.46-.064c-.166-.028-.33-.055-.49-.066-.158-.013-.733-.161-.795-.203-.076-.059-.175-.11-.192-.09zm1.828 3.151c.063.01.159.039.241.07.718.273 1.013.935 1.19 1.663.41 1.69.584 5.428.652 6.891.028.596.048 1.186.068 1.775v.001c.018.497.035.992.056 1.489l.01.219c.04.887.088 1.99-.09 2.784-.069.31-.277.67-.574.854-.341.218-1.116.234-1.543.146-1.05-.216-1.392-.89-1.542-1.927-.356-2.473-.184-7.327.026-9.375.07-.677.325-2.845.68-3.754.12-.306.378-.923.826-.836zM18.32 49.64s-1.563.11-2.64.229c-1.369.147-3.941.59-5.426 1.12-.446.158-1.35.536-1.43.993-.082.474.213.844.54 1.227.19.223 1.262 1.252 1.563 1.502 1.26 1.05 3.817 2.669 5.7 3.455.646.267 1.716.65 1.716.65s-.08-3.04-.065-6.034c.008-1.579.042-3.142.042-3.142zm28.672 1.209c.09.817-.121 2.36-.158 2.564-.066.47-.421 1.552-.48 1.684a19.198 19.198 0 01-.868 1.735c-.513.92-1.732 2.38-2.456 3.004-2.691 2.321-6.858 3.642-10.432 4.078-2.426.292-5.213.25-7.783-.225-.884-.16-2.2-.463-2.2-.463s.004.525-.039.894c-.02.168-.147.612-.218.755-.187.385-.494.584-.94.67-.539.1-1.11.133-1.607-.08-.817-.343-1.11-1.105-1.253-1.984-.115-.704-.235-1.926-.235-1.926s-.612-.289-1.121-.543a28.998 28.998 0 01-4.352-2.66 54.537 54.537 0 01-2.25-1.882c-.958-.908-1.82-1.81-2.476-2.969-.51-.905-.656-1.708-.269-2.666.535-1.337 2.456-2.343 3.77-2.916.965-.425 3.965-1.403 5.211-1.584.589-.084 1.502-.247 1.558-.283a.359.359 0 00.055-.052c.029-.04.078-1.363.068-1.847-.012-.476.353-3.6.47-4.261.062-.358.333-1.734.61-2.095.181-.244.501-.224.763-.064 1.429.887 1.863 3.962 1.97 5.526.063.954.095 2.388.095 2.388s1.64-.049 2.648-.02c.98.022 2.06.177 3.078.338 1.302.209 3.841.761 5.297 1.498 1.199.606 2.321 1.628 2.685 2.709.338.991.287 1.677-.228 2.571-.578 1.01-1.672 1.761-2.782 1.824-.33.02-1.573-.146-1.955-.44-.15-.119-.143-.331-.034-.475.04-.05.622-.359.965-.539a2.22 2.22 0 00.448-.316c.285-.25.541-.525.512-.848-.039-.42-.483-.678-.907-.844-1.988-.788-5.958-1.442-7.876-1.555a96.82 96.82 0 00-1.82-.082l.226 10.568s.883.167 1.58.28c.399.06 2.09.212 2.54.223 3.423.09 7.244-.215 10.385-1.694 1.38-.648 2.644-1.454 3.602-2.545 1.263-1.444 1.924-3.42 1.749-5.484-.192-2.255-1.782-4.93-3.052-6.56-3.356-4.305-9.107-7.846-14.167-9.922-5.167-2.118-10.272-3.337-15.755-3.54-1.414-.053-4.495.018-6.053.448-.075.02-.15.043-.223.065-.148.044-.293.088-.43.119-.164.04-.421.147-.492.204-.039.032-.078.075-.078.075s.096.053.188.092c.098.043.384.075.674.109.199.022.4.045.545.072.322.06.657.229.79.464.125.223.141.4-.01.586-.352.428-1.681.356-2.266.263-.608-.096-1.365-.282-1.504-.81-.161-.622.135-1.232.455-1.795.643-1.128 1.563-1.714 2.912-2.082 1.915-.525 4.333-.893 6.141-.962 4.093-.154 7.967.56 11.933 1.761 2.27.685 5.241 1.834 7.417 2.879 1.561.75 4.02 2.131 5.402 3.034.436.286 2.986 2.156 3.382 2.484a41.851 41.851 0 012.69 2.418c1.514 1.496 3.397 3.791 4.312 5.612.082.163.157.324.234.49.13.277.263.564.44.88.099.174.516 1.21.586 1.509l.005.023v.001c.07.295.165.707.179.724.005.041.022.13.043.246.063.335.167.891.156 1.146zm51.456-2.337c-1.916.441-6.957.686-6.957.686l-.635 1.986s2.518-.214 4.351-.023c0 0 .594-.069.663.672.024.692-.058 1.433-.058 1.433s-.038.45-.676.563c-.69.115-5.43.298-5.43.298l-.766 2.589s-.285.599.353.428c.594-.159 5.56-1.088 6.206-.955.693.172 1.46 1.094 1.238 1.934-.264 1.04-5.22 4.194-8.237 3.973 0 0-1.586.102-2.926-2.032-1.249-2.035.473-5.887.473-5.887s-.79-1.798-.218-2.408c0 0 .34-.308 1.332-.378l1.215-2.506s-1.383.095-2.206-.92c-.767-.964-.831-1.406-.243-1.673.628-.309 6.39-1.358 10.354-1.225 0 0 1.377-.135 2.572 2.25 0 0 .58.963-.405 1.195zm-14.91 9.639c-.509 1.192-1.85 2.464-3.518 1.673-1.646-.792-4.267-6.145-4.267-6.145s-.996-1.996-1.187-1.945c0 0-.215-.39-.347 1.792-.033.518-.048 1.155-.065 1.832-.053 2.159-.116 4.734-.777 5.241-.823.669-1.819.403-2.336-.378-.47-.77-.665-2.597-.408-5.808.3-3.217 1.05-6.64 2.007-7.705.932-1.033 1.684-.328 1.999-.034l.023.022s1.278 1.156 3.387 4.55l.372.628s1.915 3.207 2.115 3.2c0 0 .157.147.297.041.2-.057.12-1.085.12-1.085s-.398-3.495-2.146-9.41c0 0-.264-.738-.085-1.43.177-.698.879-.37.879-.37s2.709 1.359 4.024 5.759c1.306 4.4.428 8.37-.088 9.572zm29.153-2.635c-1.233 2.146-4.714 6.64-9.34 5.579-1.528 3.696-2.811 7.435-3.545 13.029 0 0-.162 1.087-1.067.71-.898-.314-2.376-1.803-2.675-3.862-.322-2.705.885-7.278 3.353-12.522-.72-1.167-1.21-2.835-.79-5.209 0 0 .619-4.41 5.058-8.383 0 0 .532-.458.84-.317.34.142.183 1.577-.087 2.274-.28.694-2.256 4.107-2.256 4.107s-1.233 2.305-.886 4.124c2.328-3.57 7.62-10.77 10.9-8.5 1.102.786 1.61 2.497 1.61 4.34 0 1.62-.391 3.34-1.115 4.63zm-.957-5.655s-.183-1.42-1.574.144c-1.196 1.32-3.355 3.793-5.092 7.151 1.823-.204 3.581-1.19 4.113-1.693.864-.765 2.878-2.841 2.553-5.602zm26.442-.323h-8.478a66.432 66.432 0 00-1.064-8.56.631.631 0 00-.62-.515h-1.954a.573.573 0 00-.563.686 61.75 61.75 0 011.08 8.391h-8.156a.687.687 0 00-.69.685v1.759a.69.69 0 00.69.688h8.273c.006.434.01.822.01 1.187 0 2.535-.11 4.623-.366 6.979-.02.182.04.363.163.497.12.135.293.211.473.211h1.813a.684.684 0 00.682-.617c.248-2.372.354-4.486.354-7.07 0-.363-.004-.754-.01-1.188h8.363a.69.69 0 00.689-.687v-1.759c0-.38-.31-.687-.689-.687z"/></svg>