<svg xmlns="http://www.w3.org/2000/svg" fill="none" viewBox="0 0 86 35"><path fill="#000" d="M.552.424V2.75h16.505V.424H.552zm18.844 0V2.75h23.522S40.515.424 37.334.424H19.396zm28.136 0V2.75H61.76L60.916.424H47.532zm24.431 0L71.12 2.75h14.102V.424H71.963zM.553 4.95v2.328h16.503V4.95H.552zm18.843.003v2.323h26.25s-.307-1.79-.842-2.323H19.396zm28.136 0v2.323h15.8l-.781-2.323h-15.02zm22.742 0l-.781 2.323H85.22V4.954H70.274zM5.296 9.478v2.331h7.148v-2.33H5.296zm18.844 0v2.331h7.148v-2.33H24.14zm14.102 0v2.331h7.148s.454-1.231.454-2.33h-7.602zm14.034 0v2.331H64.94l-.845-2.33H52.276zm16.443 0l-.849 2.331h12.736v-2.33H68.72zm-63.422 4.53v2.328h7.148V14.01H5.297zm18.844 0v2.328h18.258s1.526-1.194 2.012-2.327h-20.27zm28.135 0v2.328h7.148V15.04l.455 1.296h13.095l.487-1.296v1.296h7.148V14.01H67.19l-.712 1.971-.714-1.971H52.276zm-46.98 4.528v2.327h7.148v-2.327H5.296zm18.844 0v2.327h20.27c-.487-1.129-2.013-2.327-2.013-2.327H24.14zm28.135 0v2.327h7.148v-2.327h-7.148zm8.447 0l.866 2.327h9.818l.822-2.327H60.722zm12.736 0v2.327h7.148v-2.327h-7.148zm-68.16 4.527v2.328h7.148v-2.328H5.298zm18.844 0v2.328h7.148v-2.328h-7.148zm14.102 0v2.328h7.601c0-1.099-.454-2.328-.454-2.328h-7.147zm14.034 0v2.328h7.149v-2.328h-7.149zm10.07 0l.837 2.328h6.58l.844-2.328h-8.261zm11.112 0v2.328h7.148v-2.328H73.46zM.684 27.59v2.331H17.19v-2.33H.684zm18.716 0v2.331h25.409c.534-.534.84-2.33.84-2.33H19.4zm28.264 0v2.331h11.758v-2.33H47.664zm16.31 0l.86 2.331h3.35l.808-2.33h-5.019zm9.486 0v2.331h11.892v-2.33H73.46zM.684 32.12v2.329H17.19V32.12H.684zm18.716 0v2.324h17.934c3.181 0 5.584-2.323 5.584-2.323H19.4zm28.264 0v2.329h11.758V32.12H47.664zm17.943 0l.828 2.322.143.003.841-2.323-1.812-.001zm7.854 0v2.329h11.892V32.12H73.461z"/></svg>