<svg xmlns="http://www.w3.org/2000/svg" fill="none" viewBox="0 0 103 25"><path fill="#000" fill-rule="evenodd" d="M8.324.63c-2.716.764-4.3 1.682-5.903 3.421-3.295 3.575-2.668 9.055 1.377 12.03 3.33 2.448 9.18 3.168 13.728 1.688 1.893-.616 2.735-1.146 4.307-2.708 1.63-1.62 2.02-2.25 2.353-3.8.948-4.42-1.444-8.336-6.191-10.14-2.53-.96-7.166-1.196-9.671-.491zM34.476.58c-.956.25-2.402.798-3.215 1.218l-1.477.763v-.876c0-.82-.112-.876-1.738-.876H26.31V24.443h3.475v-3.997c0-2.198.06-3.996.132-3.996.072 0 1.05.43 2.172.955 1.87.877 2.388.956 6.21.956 3.846 0 4.337-.077 6.3-.984 7.972-3.683 7.658-13.177-.537-16.244C41.626.22 36.896-.051 34.476.58zm26.029 0c-.977.25-2.424.792-3.215 1.205l-1.44.75v-.863c0-.804-.119-.863-1.738-.863h-1.738V24.443h3.476v-3.997c0-2.198.06-3.996.132-3.996.072 0 1.05.43 2.172.955 1.87.877 2.387.956 6.21.956 3.767 0 4.358-.088 6.099-.904 3.969-1.861 5.892-4.499 5.892-8.08 0-3.74-2.536-6.968-6.603-8.401C67.616.223 62.72.015 60.505.582zm25.661.073c-5.025 1.353-7.826 4.444-7.856 8.671-.018 2.593.86 4.4 3.097 6.368 2.34 2.06 4.412 2.67 9.023 2.658 4.549-.011 6.937-.778 9.166-2.94 1.751-1.7 2.46-3.056 2.712-5.19.533-4.491-3.025-8.554-8.506-9.716-2.435-.516-5.38-.458-7.636.149zM17.688 4.379c2.099 1.23 3.06 2.797 3.059 4.987-.003 3.11-2.158 5.265-6.053 6.048C8.324 16.696 2.8 12.871 4.08 8.067c.485-1.819 1.597-3.056 3.608-4.016 1.559-.743 2.152-.829 5.077-.729 2.858.097 3.534.243 4.922 1.057zm25.735-.15c2.057 1.013 3.108 2.456 3.31 4.542.32 3.342-1.563 5.516-5.65 6.525-6.193 1.528-11.853-1.912-11.13-6.766.194-1.307.54-1.922 1.709-3.046 1.901-1.826 3.178-2.216 6.984-2.134 2.483.053 3.469.235 4.777.879zM68.4 3.778c3.843 1.356 5.499 5.091 3.692 8.327-.58 1.038-1.305 1.655-2.862 2.432-1.803.902-2.461 1.041-4.865 1.033-4.741-.015-7.742-1.92-8.385-5.323-.49-2.595 1.357-5.442 4.183-6.445 1.919-.68 6.339-.694 8.237-.024zm26.73.42c2.918 1.493 4.017 3.61 3.383 6.517-.813 3.728-5.964 5.845-11.052 4.542-3.706-.95-5.546-2.884-5.545-5.828.002-3.976 2.997-6.14 8.54-6.17 2.392-.014 3.078.124 4.673.94z" clip-rule="evenodd"/></svg>