<?xml version="1.0" encoding="utf-8"?>
<!-- Generator: Adobe Illustrator 24.3.0, SVG Export Plug-In . SVG Version: 6.00 Build 0)  -->
<svg version="1.1" id="Layer_1" xmlns="http://www.w3.org/2000/svg" xmlns:xlink="http://www.w3.org/1999/xlink" x="0px" y="0px"
	 viewBox="0 0 92.9 19.6" style="enable-background:new 0 0 92.9 19.6;" xml:space="preserve">
<style type="text/css">
	.st0{fill-rule:evenodd;clip-rule:evenodd;fill:#222222;}
	.st1{fill-rule:evenodd;clip-rule:evenodd;fill:#838383;}
</style>
<path class="st0" d="M22.1,7.4C22,8,21.7,8.4,21.3,8.6c-0.4,0.3-1,0.4-1.8,0.4h-2.4l0.9-3.2h2.4c0.8,0,1.3,0.1,1.6,0.4
	C22.2,6.5,22.3,6.9,22.1,7.4z M24.6,7.3c0.3-1.2,0.2-2-0.4-2.6c-0.6-0.6-1.6-0.9-3-0.9h-5.4l-3.3,12.2h2.6l1.3-4.9h1.7
	c0.4,0,0.7,0.1,0.9,0.2c0.2,0.1,0.4,0.3,0.4,0.7l0.5,4.1h2.8l-0.5-3.8c-0.1-0.8-0.5-1.3-1.2-1.5c0.9-0.3,1.6-0.7,2.2-1.2
	C24,8.8,24.4,8.1,24.6,7.3z"/>
<path class="st0" d="M31,11.6c-0.2,0.8-0.6,1.4-1,1.9c-0.5,0.4-1,0.6-1.6,0.6c-0.7,0-1.1-0.2-1.3-0.6c-0.2-0.4-0.2-1,0-1.9
	c0.2-0.8,0.6-1.4,1-1.9c0.5-0.5,1-0.7,1.7-0.7c0.6,0,1.1,0.2,1.3,0.7C31.3,10.1,31.3,10.8,31,11.6z M32.2,7.3l-0.3,1.2
	c-0.1-0.4-0.4-0.8-0.8-1.1C30.6,7.2,30.1,7,29.5,7c-0.7,0-1.5,0.2-2.1,0.6c-0.7,0.4-1.3,0.9-1.8,1.6c-0.5,0.7-0.9,1.5-1.1,2.4
	c-0.2,0.9-0.3,1.7-0.1,2.4c0.1,0.7,0.5,1.2,0.9,1.6c0.5,0.4,1.1,0.5,1.8,0.5c0.6,0,1.2-0.1,1.7-0.4c0.5-0.3,1-0.6,1.4-1l-0.3,1.3
	h2.5l2.3-8.7H32.2z"/>
<path class="st0" d="M43.9,7.3h-7.4L36,9.2h4.3l-5.7,4.9l-0.5,1.8h7.6l0.5-1.9h-4.6l5.8-5L43.9,7.3z"/>
<path class="st0" d="M50.4,11.6c-0.2,0.9-0.6,1.5-1,1.9c-0.4,0.4-1,0.6-1.6,0.6c-1.3,0-1.8-0.8-1.3-2.5c0.2-0.8,0.6-1.5,1-1.9
	c0.5-0.4,1-0.6,1.7-0.6c0.6,0,1.1,0.2,1.3,0.6C50.6,10.1,50.6,10.7,50.4,11.6z M51.9,7.6C51.3,7.2,50.6,7,49.7,7
	c-0.9,0-1.8,0.2-2.6,0.5c-0.8,0.4-1.5,0.9-2,1.6c-0.6,0.7-1,1.5-1.2,2.4c-0.2,0.9-0.3,1.7-0.1,2.4c0.2,0.7,0.6,1.2,1.2,1.6
	c0.6,0.4,1.3,0.5,2.3,0.5c0.9,0,1.8-0.2,2.5-0.5c0.8-0.4,1.4-0.9,2-1.6c0.6-0.7,1-1.5,1.2-2.4c0.2-0.9,0.3-1.7,0.1-2.4
	C52.9,8.5,52.5,8,51.9,7.6z"/>
<path class="st0" d="M78.5,11.6c-0.2,0.8-0.6,1.4-1,1.9c-0.5,0.4-1,0.6-1.6,0.6c-0.6,0-1.1-0.2-1.3-0.6c-0.2-0.4-0.2-1,0-1.9
	c0.2-0.8,0.6-1.4,1-1.9c0.5-0.5,1-0.7,1.7-0.7c0.6,0,1.1,0.2,1.3,0.7S78.8,10.8,78.5,11.6z M79.7,7.3l-0.3,1.2
	c-0.1-0.4-0.4-0.8-0.8-1.1C78.1,7.2,77.6,7,77,7c-0.7,0-1.5,0.2-2.1,0.6c-0.7,0.4-1.3,0.9-1.8,1.6c-0.5,0.7-0.9,1.5-1.1,2.4
	c-0.2,0.9-0.3,1.7-0.1,2.4c0.1,0.7,0.5,1.2,0.9,1.6c0.5,0.4,1.1,0.5,1.8,0.5c0.6,0,1.2-0.1,1.7-0.4c0.5-0.3,1-0.6,1.4-1l-0.3,1.3
	h2.5l2.3-8.7H79.7z"/>
<path class="st0" d="M61,9.6l0.6-2.4c-0.2-0.1-0.5-0.2-0.9-0.2c-0.6,0-1.1,0.1-1.7,0.4c-0.5,0.2-0.9,0.6-1.2,1l0.3-1.3l-0.7,0h-1.8
	l-2.3,8.7h2.6l1.2-4.5c0.2-0.7,0.5-1.2,1-1.5c0.5-0.4,1-0.6,1.7-0.6C60.2,9.3,60.6,9.4,61,9.6z"/>
<path class="st0" d="M68.2,11.6c-0.2,0.8-0.6,1.4-1,1.9c-0.5,0.4-1,0.6-1.6,0.6c-0.6,0-1.1-0.2-1.3-0.6c-0.2-0.4-0.2-1.1,0-1.9
	c0.2-0.8,0.6-1.5,1-1.9c0.5-0.4,1-0.7,1.7-0.7c0.6,0,1.1,0.2,1.3,0.7C68.4,10.2,68.4,10.8,68.2,11.6z M70,7.6
	C69.5,7.2,68.9,7,68.1,7c-0.6,0-1.3,0.1-1.9,0.4c-0.6,0.3-1.1,0.7-1.4,1.2l0-0.1l0.4-1.4h-0.5v0h-2l-0.6,2.4c0,0,0,0.1,0,0.1
	l-2.6,9.9h2.6l1.3-5c0.1,0.4,0.4,0.8,0.8,1c0.4,0.3,0.9,0.4,1.5,0.4c0.8,0,1.5-0.2,2.1-0.5c0.7-0.4,1.3-0.9,1.8-1.6
	c0.5-0.7,0.9-1.5,1.1-2.4c0.2-0.9,0.3-1.7,0.1-2.4C70.8,8.5,70.5,8,70,7.6z"/>
<path class="st0" d="M92.9,7.3L92.9,7.3l-1.6,0c0,0-0.1,0-0.1,0h-0.8L90,7.9c0,0-0.1,0.1-0.1,0.1l0,0.1l-3.3,4.6l-0.7-5.4h-2.7
	l1.4,8.2l-3,4.2h0.1h1.5h1.1l0.7-1c0,0,0-0.1,0.1-0.1l0.9-1.2l0,0l3.8-5.4L92.9,7.3L92.9,7.3L92.9,7.3z"/>
<path class="st1" d="M6,5.2L5.2,8l4.4-2.9L6.7,15.9l2.9,0L13.9,0L6,5.2z"/>
<path class="st0" d="M1.2,11.4L0,15.9h6c0,0,2.5-9.2,2.5-9.2C8.5,6.7,1.2,11.4,1.2,11.4z"/>
</svg>
