<?xml version="1.0" encoding="utf-8"?>
<!-- Generator: Adobe Illustrator 24.3.0, SVG Export Plug-In . SVG Version: 6.00 Build 0)  -->
<svg version="1.1" id="Layer_1" xmlns="http://www.w3.org/2000/svg" xmlns:xlink="http://www.w3.org/1999/xlink" x="0px" y="0px"
	 viewBox="0 0 264.7 94.1" style="enable-background:new 0 0 264.7 94.1;" xml:space="preserve">
<g>
	<path d="M13.1,91c-4.4-2-7.7-4.3-9.8-7C1,81.4,0,79.2,0,77.2c0-0.4,0-0.8,0.2-1.2c0.2-0.4,0.4-0.7,0.7-0.9c0.3-0.3,0.6-0.5,0.9-0.6
		c0.3-0.1,0.7-0.2,1.1-0.2h10.7c0.4,0,0.7,0.1,1,0.3c0.3,0.2,0.6,0.4,0.8,0.7c0.4,0.4,1.4,1.2,3,2.5c1.5,1.4,3.3,2.4,5.2,3
		c2,0.8,4.2,1.2,6.4,1.2c3.5,0,6.3-0.6,8.5-2.1c1-0.6,1.9-1.4,2.5-2.4c0.6-1,0.9-2.2,0.8-3.3c0-1.6-0.5-3.1-1.4-4.3
		c-1.6-1.4-3.4-2.4-5.3-3c-2.6-0.9-6.5-1.8-11.6-3c-7.4-1.6-12.8-3.9-16.3-7.2c-3.5-3.3-5.3-7.4-5.3-12.8c0-3.6,1.1-7,3.2-9.9
		c2.4-3.3,5.6-5.9,9.4-7.6c4-2,9-2.9,14.7-2.9c5.2-0.1,10.4,0.8,15.3,2.7c4.3,2,7.6,4.2,9.8,6.8c2.2,2.6,3.3,5,3.3,6.9
		c0,0.4-0.1,0.7-0.2,1.1c-0.1,0.3-0.3,0.6-0.6,0.9c-0.3,0.3-0.6,0.5-0.9,0.7c-0.4,0.2-0.7,0.2-1.1,0.2h-9.8c-0.4,0-0.8-0.1-1.2-0.3
		c-0.4-0.2-0.7-0.4-1-0.8c-1-0.8-2-1.6-2.9-2.5c-1.4-1.2-2.9-2.1-4.6-2.7c-1.9-0.7-4-1.1-6-1c-3.3,0-5.7,0.7-7.4,2.1
		c-0.8,0.7-1.5,1.5-1.9,2.4c-0.5,0.9-0.7,2-0.7,3c-0.1,1.4,0.4,2.8,1.3,3.9c0.8,1,2.5,2,5,2.9c3.7,1.3,7.5,2.2,11.3,2.9
		c15.7,3,23.5,9.9,23.5,20.5c0,6.1-2.6,11.2-7.9,15C46.8,92.1,39.2,94,29.7,94C23,94,17.5,93,13.1,91z"/>
	<path d="M71.4,91.8c-0.3-0.3-0.5-0.6-0.7-1c-0.2-0.4-0.2-0.8-0.2-1.2V3.2c0-0.4,0-0.9,0.2-1.3c0.2-0.4,0.4-0.8,0.7-1.1
		C72.1,0.3,72.8,0,73.7,0h11c0.4-0.1,0.9,0,1.3,0.1s0.8,0.4,1.1,0.7c0.3,0.3,0.5,0.7,0.7,1.1s0.2,0.9,0.1,1.3v86.4
		c0,0.8-0.3,1.6-0.8,2.2c-0.3,0.3-0.7,0.5-1.1,0.7c-0.4,0.2-0.8,0.2-1.3,0.2H73.7c-0.4,0-0.8,0-1.2-0.2S71.7,92.1,71.4,91.8z"/>
	<path d="M100.6,91.8c-0.3-0.3-0.5-0.6-0.7-1c-0.2-0.4-0.2-0.8-0.2-1.2V30.2c0-0.4,0-0.9,0.2-1.3c0.2-0.4,0.4-0.8,0.7-1.1
		c0.6-0.5,1.4-0.8,2.2-0.8H114c0.4,0,0.8,0.1,1.2,0.2c0.4,0.2,0.7,0.4,1,0.7c0.3,0.3,0.5,0.6,0.7,1c0.2,0.4,0.2,0.8,0.2,1.2v59.4
		c0,0.4-0.1,0.8-0.2,1.2c-0.2,0.4-0.4,0.7-0.7,1c-0.3,0.3-0.6,0.5-1,0.7c-0.4,0.2-0.8,0.2-1.2,0.2h-11.1c-0.4,0-0.8,0-1.2-0.2
		C101.3,92.3,100.9,92.1,100.6,91.8z"/>
	<path d="M137,86.1c-5.7-5.3-8.7-12.7-9.1-22l-0.1-5.2l0.1-5.2c0.4-9.4,3.4-16.7,9.1-22c5.6-5.3,13.3-7.9,22.8-7.9
		c6.9,0,12.7,1.2,17.5,3.7c4.7,2.5,8.2,5.3,10.6,8.9c2.2,3.5,3.5,6.9,3.7,10.2c0.1,0.4,0,0.8-0.1,1.2c-0.1,0.4-0.4,0.7-0.7,1
		c-0.3,0.3-0.7,0.5-1.1,0.7c-0.4,0.2-0.8,0.2-1.3,0.2h-11.6c-0.8,0-1.5-0.2-2.1-0.6c-0.6-0.6-1-1.3-1.3-2.1c-1.3-3.3-3-5.7-5.1-7.2
		c-2.5-1.5-5.3-2.3-8.2-2.2c-4.4,0-7.8,1.4-10.3,4.2c-2.5,2.7-3.9,7-4,12.8l-0.1,4.8l0.1,4.3c0.5,11.3,5.3,17,14.4,17
		c2.9,0.1,5.8-0.7,8.2-2.2c2.1-1.4,3.8-3.8,5.1-7.2c0.3-0.8,0.7-1.5,1.3-2.1c0.6-0.5,1.3-0.7,2.1-0.6h11.6c0.4,0,0.9,0,1.3,0.2
		c0.4,0.2,0.8,0.4,1.1,0.7c0.3,0.3,0.6,0.6,0.7,1c0.1,0.4,0.2,0.8,0.1,1.2c-0.1,3-1.4,6.3-3.7,9.8c-2.2,3.5-5.7,6.6-10.4,9.1
		c-4.7,2.5-10.6,3.8-17.6,3.8C150.3,94,142.6,91.4,137,86.1z"/>
	<path d="M209.4,85.7c-5.7-5.6-8.7-13.5-9.1-23.8l-0.1-3.3c0-10.8,2.9-19.4,8.6-25.7c5.6-6.3,13.6-9.4,23.6-9.4
		c10.3,0,18.4,3.1,24,9.4c5.6,6.3,8.4,14.6,8.4,25.1v2.7c0,0.4-0.1,0.8-0.2,1.2c-0.2,0.4-0.4,0.7-0.7,1c-0.3,0.3-0.7,0.6-1.1,0.7
		c-0.4,0.2-0.8,0.2-1.3,0.2h-43.3v1c0,4.3,1.4,8.6,4,12c2.5,3.3,5.9,4.8,10.2,4.8c2.4,0.1,4.7-0.5,6.8-1.5c2.1-1,3.9-2.6,5.3-4.5
		c0.5-0.7,1.1-1.3,1.8-1.8c0.7-0.2,1.5-0.3,2.2-0.3H260c0.7,0,1.5,0.2,2.1,0.7c0.3,0.2,0.5,0.5,0.6,0.8c0.1,0.3,0.2,0.7,0.2,1
		c0,2.1-1.2,4.6-3.7,7.3c-2.5,2.9-6.1,5.3-10.7,7.4c-5.1,2.2-10.5,3.3-16,3.1C222.7,94,215,91.3,209.4,85.7z M246.7,52.5
		c0-5.1-1.3-9.3-3.8-12.4c-1.3-1.5-2.9-2.7-4.8-3.5c-1.8-0.8-3.8-1.2-5.8-1.1c-4.4,0-7.9,1.6-10.4,4.6c-2.5,3.2-3.8,7.3-3.8,12.4
		v0.3h28.6V52.5z"/>
	<path d="M104.6,13.1c1.7,1.7,3.7,3.1,6,4c2.2,0.9,4.6,1.4,7,1.4V0.1H99.2c0,2.4,0.5,4.8,1.4,7C101.5,9.4,102.8,11.4,104.6,13.1z"/>
</g>
</svg>
