<?xml version="1.0" encoding="utf-8"?>
<!-- Generator: Adobe Illustrator 24.3.0, SVG Export Plug-In . SVG Version: 6.00 Build 0)  -->
<svg version="1.1" id="Layer_1" xmlns="http://www.w3.org/2000/svg" xmlns:xlink="http://www.w3.org/1999/xlink" x="0px" y="0px"
	 viewBox="0 0 107 28" style="enable-background:new 0 0 107 28;" xml:space="preserve">
<style type="text/css">
	.st0{fill-rule:evenodd;clip-rule:evenodd;}
</style>
<path class="st0" d="M105.6,20.5c-0.4,0-0.8,0.4-1,1.2l0,0c-0.4,1.7-0.8,3.5-2.4,3.5c-1.1,0-1.4-1.5-1.3-1.9l0.2-9.5
	c0.1-0.9-0.6-1.8-1.6-1.8h-0.3c-0.6,0-1.3,0.1-1.3,0.4c0,0.1,0,0.2,0.1,0.3c0.1,0.2,0.3,0.5,0.3,1.3L98,19.8c0,2.8-1.9,5.5-3.5,5.4
	c0,0-3.6,1.1-1.5-10.9c0-0.2,0.1-0.4,0.1-0.5c0.2-0.8,0.5-1.6-0.8-1.7c-1.8,0-1.9,0.5-2.1,1.1v0c0,0.1-0.1,0.3-0.1,0.4
	c-0.4,2.8-0.6,5.6-0.7,8.4v0.2C89,23.5,88.3,25,87,24.9c-0.9,0-1.4-0.6-1.4-1.9l0.2-12.4c2.2,0.1,4.4,0.1,7.7,0.1
	c1.1,0,1.6-3.9,0.3-2.7C91.1,8,88.4,8,85.9,8l0.1-3.8c0-1-0.9-1.8-2.2-1.8c-0.6,0-1.3,0.1-1.4,0.4c0,0.1,0,0.2,0.1,0.3
	c0.1,0.2,0.3,0.5,0.3,1.3L82.6,8c-2.2-0.1-3.7-0.2-3.7-0.2c-1.2,0-0.5,2.7,0.8,2.7c0.9,0.1,1.9,0.1,2.9,0.1l-0.2,10.5
	c-0.4,1.7-1.2,3.8-2.7,3.8c-1.1,0-1.1-1.5-1.1-1.9l0.1-7.6c0.1-1.9-0.6-4.1-3.4-4.1c-2.1-0.1-3.6,1.7-4.7,3.9v-1.8
	c0-1-0.9-1.8-2.2-1.8c-0.6,0-1.1,0.2-1.1,0.7v0c0.1,0.4,0.1,0.8,0.1,1.3l-0.1,6.2l-0.2,0.5c-0.4,1.8-1.2,4.4-2.9,4.3
	c-1,0-1.4-1-1.4-1.9l0.1-5.9c0-1-0.9-1.8-2.2-1.8c-0.6,0-1.1,0.2-1.1,0.7c0.1,0.4,0.1,0.8,0.1,1.3l-0.1,5.5
	c-0.5,1.2-1.2,2.1-2.4,2.1c-1.4,0-2.4-1.3-2.3-3.4c0.1-5.8,3.9-7.6,7-7.6c0.2,0,0.4,0,0.6,0.1c0.2,0,0.4,0.1,0.5,0.1
	c0.4,0,0.6-0.2,0.6-0.9c0-1-0.8-1.8-1.7-1.8h-0.1c-5.1-0.1-10,3.1-10.1,9.9c0,0.3,0,0.6,0.1,0.9c-0.5,1.3-1.2,2.5-2.4,2.5
	c-0.7,0-1.2-0.5-1.4-1.1l0.3-18.9c0-1.8-0.8-2.6-2.2-2.6c-0.6,0-1.3,0.1-1.4,0.4c0,0.1,0,0.2,0.1,0.3c0.1,0.2,0.3,0.5,0.3,1.3
	l-0.1,7.1c-4.5,0.5-8.5,3.3-8.6,9.4v0.8c-0.8,1.6-2.2,3-4.5,2.9c-1.5,0.1-2.9-0.8-3.6-2.1c3.8-2.2,6.3-4.4,6.4-7.1
	c0.1-2.4-1.4-4.1-3.7-4.2c-3.2-0.1-6.6,3.1-6.7,8.2c0,0.8,0.1,1.7,0.4,2.5c-2.1,1.6-4.5,3-7.1,3.9c0.7-3.1,1.4-6,2.1-8.9v0
	c1-4.5,2.1-8.9,3.1-13.8c0.2-0.7,0.4-1.1,0.6-1.4c0.2-0.4,0.3-0.6,0.1-0.8c-0.9-0.7-3.4-0.5-3.8,1.4c-0.9,4.5-2.2,10.2-3.2,14.5
	c-1.7-0.2-3.4,0.2-4.9,1.1c-1.2-1.8-2.6-4-4-6.2C6.5,9.3,5.2,7.3,4.1,5.6c-0.9-1.5-3.5-1-4,0c-0.1,0.2,0,0.3,0.2,0.5
	c0.2,0.2,0.5,0.5,0.9,1.1c1.7,2.5,3.2,4.9,4.7,7.2l0,0c2.7,4.2,5.3,8.3,8.7,12.5c0.4,0.5,1.2,0.8,1.9,0.5v0.1l0.9-0.4l-0.8,0.4
	c2.4-0.4,5.4-1.6,9.2-4c1.2,2.2,3.6,3.5,6,3.4c2.2,0.1,4.4-0.7,5.9-2.2c0.9,1.5,2.6,2.4,4.3,2.4c1.4,0,2.7-0.5,3.7-1.5
	c0.7,1,1.9,1.6,3.1,1.6c1.6,0,3.1-0.8,4-2.1c0.8,1.3,2.3,2.2,3.9,2.2c1.4,0,2.7-0.5,3.6-1.6c0.7,1.1,1.9,1.7,3.2,1.7
	c1.4,0,2.8-0.6,3.7-1.7c0,1.5,1.1,1.8,2,1.8c1.2,0,1.2-1,1.2-1.7l0.1-5.9c0.4-3.2,3-5.8,4.2-5.8c0.8,0,0.9,1.1,0.8,2.3l-0.1,7.4
	c-0.1,2.1,1.2,3.8,3.4,3.9c1.6,0,3-0.7,3.9-1.9c0.6,1.3,1.9,2.1,3.3,2c1.6,0,3.1-0.7,4-2c0.6,1.3,2.1,2.2,3.6,2.2
	c1.8,0,3.2-1.2,4.2-2.8c0.2,1.7,1.6,2.9,3.4,2.9c3.6,0.1,4.9-2.8,5.7-5.5c0.1-0.1,0.1-0.2,0.1-0.3C107,21.5,106.3,20.5,105.6,20.5z
	 M30.8,13.3c0.6,0,0.9,0.5,0.9,1.5c-0.1,2.4-1.7,3.6-3.6,4.8c0-0.1,0-0.2,0-0.4c0-0.1,0-0.2,0-0.4C27.9,17.1,28.7,13.3,30.8,13.3z
	 M42.7,24.5c1.1-0.1,2-0.7,2.4-1.6l0.2-10c-2.7,0.5-5.3,2.3-5.4,7.4C39.9,23.3,41.2,24.5,42.7,24.5z"/>
</svg>
