<?xml version="1.0" encoding="utf-8"?>
<!-- Generator: Adobe Illustrator 24.3.0, SVG Export Plug-In . SVG Version: 6.00 Build 0)  -->
<svg version="1.1" id="Layer_1" xmlns="http://www.w3.org/2000/svg" xmlns:xlink="http://www.w3.org/1999/xlink" x="0px" y="0px"
	 viewBox="0 0 184.2 60" style="enable-background:new 0 0 184.2 60;" xml:space="preserve">
<path d="M116.5,13.5c0-0.5,0.1-1,0.3-1.4c0.2-0.4,0.5-0.8,0.8-1.2c0.3-0.3,0.7-0.6,1.2-0.8c0.4-0.2,0.9-0.3,1.4-0.3h2.6V4.5
	c-0.1-0.6,0-1.1,0.1-1.7c0.2-0.5,0.4-1,0.8-1.5c0.4-0.4,0.8-0.8,1.4-1c0.5-0.2,1.1-0.4,1.7-0.4c0.6,0,1.1,0.1,1.7,0.4
	c0.5,0.2,1,0.6,1.4,1c0.4,0.4,0.6,0.9,0.8,1.5c0.2,0.5,0.2,1.1,0.1,1.7v5.4h8.4c0.5,0,1,0.1,1.4,0.3c0.4,0.2,0.9,0.4,1.2,0.8
	c0.3,0.3,0.6,0.7,0.8,1.2c0.2,0.4,0.3,0.9,0.3,1.4c0,1-0.4,1.9-1.1,2.6c-0.7,0.7-1.6,1.1-2.6,1.1h-8.4v12.9c0,6.3,3.5,9.5,8.4,9.5
	c1,0,1.9,0.4,2.6,1.1c0.7,0.7,1.1,1.6,1.1,2.6c0,1-0.4,1.9-1.1,2.6c-0.7,0.7-1.6,1.1-2.6,1.1c-9.2,0-16.2-6.5-16.2-16.9V17.2h-2.6
	c-1,0-1.9-0.4-2.6-1.1C116.9,15.4,116.5,14.5,116.5,13.5z"/>
<path d="M35.5,28c0-3.6,1.1-7.1,3-10.2s4.7-5.4,8-7c3.3-1.5,6.9-2.1,10.5-1.6c3.6,0.5,6.9,1.9,9.7,4.2c0.4,0.4,0.8,0.8,1,1.3
	c0.2,0.5,0.4,1.1,0.4,1.6c0,1.1-0.4,2.1-1.1,2.9L56,32.4c-0.3,0.4-0.7,0.7-1.2,1c-0.5,0.2-1,0.3-1.5,0.3c-0.5,0-1,0-1.4-0.2
	c-0.5-0.2-0.9-0.4-1.2-0.8c-0.3-0.3-0.6-0.7-0.8-1.2c-0.2-0.4-0.3-0.9-0.3-1.4c0-0.4,0-0.9,0.2-1.3c0.1-0.4,0.4-0.8,0.7-1.1
	l8.6-10.1c-1.4-0.9-3-1.3-4.7-1.3c-6.1,0-11,5.1-11,11.6c0,6.5,4.8,11.6,11,11.6c1.4,0,2.8-0.3,4.1-0.8c1.3-0.6,2.5-1.4,3.4-2.4
	c0.2-0.1,0.3-0.2,0.4-0.4c0.9-0.8,1.7-1.4,3-1.4c0.5,0,1,0.1,1.5,0.2c0.5,0.2,0.9,0.5,1.3,0.8c0.4,0.4,0.6,0.8,0.8,1.2
	c0.2,0.5,0.3,1,0.3,1.5c-0.1,1-0.5,1.9-1.1,2.6c-1.7,1.9-3.8,3.5-6.2,4.5c-2.4,1-4.9,1.5-7.5,1.5c-2.5,0-5-0.4-7.3-1.4
	c-2.3-0.9-4.4-2.3-6.2-4.1c-1.8-1.8-3.1-3.9-4.1-6.2C35.9,33,35.5,30.5,35.5,28z"/>
<path d="M20.3,17.1H4.5c-1,0-1.9-0.4-2.6-1.1c-0.7-0.7-1.1-1.6-1.1-2.6c0-0.5,0.1-1,0.3-1.4c0.2-0.4,0.4-0.9,0.8-1.2
	c0.3-0.3,0.7-0.6,1.2-0.8C3.5,9.8,4,9.8,4.5,9.8h23.7c0.5,0,1,0.1,1.4,0.3c0.4,0.2,0.8,0.5,1.2,0.8c0.3,0.3,0.6,0.7,0.8,1.2
	c0.2,0.4,0.3,0.9,0.3,1.4c0,1-0.4,1.9-1.1,2.6L11.4,39h16.7c0.5,0,1,0.1,1.4,0.3c0.4,0.2,0.8,0.5,1.2,0.8c0.3,0.3,0.6,0.7,0.8,1.2
	c0.2,0.4,0.3,0.9,0.3,1.4c0,1-0.4,1.9-1.1,2.6c-0.7,0.7-1.6,1.1-2.6,1.1H3.6c-1,0-1.9-0.4-2.6-1.1C0.4,44.5,0,43.6,0,42.6
	c0-1,0.4-1.9,1.1-2.6L20.3,17.1z"/>
<path d="M96.2,9.1c-4.4,0-8.6,1.6-11.9,4.5v-0.5c-0.1-0.9-0.6-1.8-1.3-2.4c-0.7-0.6-1.7-1-2.6-1c-1,0-1.9,0.3-2.6,1
	c-0.7,0.6-1.2,1.5-1.3,2.4v43.5c0.1,1,0.6,1.8,1.3,2.4c0.7,0.6,1.6,1,2.6,1c0.9,0,1.9-0.3,2.6-1c0.7-0.6,1.2-1.5,1.3-2.4v-14
	c3.3,2.9,7.5,4.5,11.9,4.4c10.3,0,18.1-8.4,18.1-18.9C114.2,17.5,106.4,9.1,96.2,9.1z M95.3,39.7c-6.1,0-11-5-11-11.7v-0.5
	c0.2-6.4,4.9-11.2,11-11.2c6.1,0,11,5,11,11.7C106.3,34.7,101.4,39.7,95.3,39.7z"/>
<path d="M183.9,24.3c-0.7-3.7-2.5-7-5.2-9.7c-2.6-2.6-6-4.4-9.7-5.2c-3.7-0.7-7.5-0.4-10.9,1.1c-3.5,1.4-6.4,3.9-8.5,7
	c-2.1,3.1-3.2,6.8-3.2,10.5c0,2.5,0.4,5,1.3,7.3c0.9,2.3,2.3,4.4,4.1,6.2c1.8,1.8,3.9,3.1,6.2,4.1c2.3,0.9,4.8,1.4,7.3,1.3
	c3.7,0,7.4-1.1,10.5-3.2c3.1-2.1,5.5-5,7-8.5C184.2,31.8,184.6,28,183.9,24.3z M165.3,39.6c-6.3,0-11-5.2-11-11.6
	c0-6.4,4.7-11.6,11-11.6s11,5.2,11,11.6C176.3,34.4,171.6,39.6,165.3,39.6z"/>
</svg>
